Coordinates
version=1
nRows=32
nColumns=12
inDegrees=yes

Units are S.I. units (second, meters, Newtons, ...)
Angles are in degrees

endheader
time	SC_y	SC_z	SC_x	AC_y	AC_z	AC_x	GH_y	GH_z	GH_yy	EL_x	PS_y
       0.0              -14.28          23.46          60.07          37.22         -13.06         -6.989          47.02          82.92          164.1          74.07          80.97
   0.02063              -14.28          23.46          60.07          37.22         -13.06         -6.989           47.0          82.91          164.1          74.07          80.96
   0.04126              -14.28          23.45          60.08          37.23         -13.06         -6.989          46.97          82.89          164.0          74.07          80.96
    0.0619              -14.28          23.45          60.08          37.23         -13.05          -6.99          46.94          82.88          164.0          74.07          80.95
   0.08253              -14.29          23.44          60.08          37.23         -13.05         -6.991          46.91          82.86          163.9          74.07          80.94
    0.1032              -14.29          23.44          60.08          37.24         -13.05         -6.991          46.88          82.84          163.9          74.07          80.94
    0.1238              -14.29          23.43          60.09          37.24         -13.05         -6.992          46.84          82.82          163.8          74.07          80.93
    0.1444              -14.29          23.43          60.09          37.25         -13.05         -6.992           46.8          82.81          163.7          74.06          80.92
    0.1651               -14.3          23.42           60.1          37.25         -13.04         -6.993          46.76          82.78          163.7          74.06          80.92
    0.1857               -14.3          23.41           60.1          37.26         -13.04         -6.994          46.72          82.76          163.6          74.06          80.91
    0.2063               -14.3          23.41           60.1          37.26         -13.04         -6.995          46.67          82.74          163.5          74.06           80.9
     0.227              -14.31           23.4          60.11          37.27         -13.04         -6.996          46.62          82.71          163.4          74.06          80.89
    0.2476              -14.31          23.39          60.11          37.28         -13.03         -6.997          46.57          82.68          163.3          74.05          80.88
    0.2682              -14.32          23.38          60.12          37.29         -13.03         -6.998          46.51          82.65          163.2          74.05          80.87
    0.2888              -14.32          23.37          60.12          37.29         -13.03         -6.999          46.45          82.62          163.1          74.05          80.86
    0.3095              -14.33          23.36          60.13           37.3         -13.02           -7.0          46.38          82.58          163.0          74.05          80.84
    0.3301              -14.33          23.35          60.14          37.31         -13.02         -7.001           46.3          82.54          162.9          74.04          80.83
    0.3507              -14.34          23.34          60.15          37.32         -13.01         -7.003          46.22           82.5          162.7          74.04          80.81
    0.3714              -14.34          23.33          60.15          37.33         -13.01         -7.004          46.13          82.45          162.6          74.04           80.8
     0.392              -14.35          23.31          60.16          37.35          -13.0         -7.006          46.03           82.4          162.4          74.03          80.78
    0.4126              -14.36           23.3          60.17          37.36          -13.0         -7.008          45.93          82.35          162.2          74.03          80.76
    0.4333              -14.37          23.28          60.18          37.38         -12.99          -7.01          45.81          82.29          162.0          74.02          80.74
    0.4539              -14.38          23.26           60.2          37.39         -12.98         -7.012          45.68          82.22          161.8          74.02          80.71
    0.4745              -14.39          23.24          60.21          37.41         -12.97         -7.015          45.54          82.14          161.5          74.01          80.69
    0.4952               -14.4          23.22          60.22          37.43         -12.97         -7.018          45.37          82.06          161.3          74.01          80.66
    0.5158              -14.41          23.19          60.24          37.45         -12.96         -7.021           45.2          81.97          160.9           74.0          80.62
    0.5364              -14.43          23.16          60.26          37.48         -12.94         -7.025           45.0          81.86          160.6          73.99          80.58
    0.5571              -14.44          23.13          60.28          37.51         -12.93         -7.029          44.77          81.74          160.2          73.98          80.54
    0.5777              -14.46          23.09           60.3          37.54         -12.92         -7.033          44.52          81.61          159.8          73.97          80.49
    0.5983              -14.48          23.05          60.33          37.58          -12.9         -7.038          44.23          81.46          159.3          73.96          80.44
     0.619              -14.51           23.0          60.36          37.62         -12.88         -7.044           43.9          81.29          158.7          73.95          80.38
    0.6396              -14.54          22.94          60.39          37.67         -12.86         -7.051          43.52          81.09          158.0          73.93          80.31
